<?xml version="1.0" standalone="no"?>
<!DOCTYPE svg PUBLIC "-//W3C//DTD SVG 20010904//EN"
 "http://www.w3.org/TR/2001/REC-SVG-20010904/DTD/svg10.dtd">
<svg version="1.0" xmlns="http://www.w3.org/2000/svg"
 width="486.000000pt" height="486.000000pt" viewBox="0 0 486.000000 486.000000"
 preserveAspectRatio="xMidYMid meet">
<metadata>
Created by potrace 1.14, written by Peter Selinger 2001-2017
</metadata>
<g transform="translate(0.000000,486.000000) scale(0.100000,-0.100000)"
fill="#000000" stroke="none">
<path d="M2113 4834 c-35 -16 -3 -24 90 -23 79 0 96 3 77 10 -29 12 -149 21
-167 13z"/>
<path d="M2583 4804 c-33 -15 -5 -24 74 -24 55 0 83 4 78 9 -12 12 -134 23
-152 15z"/>
<path d="M1790 4761 c-40 -13 -90 -41 -90 -51 0 -15 13 -12 67 11 26 11 73 27
103 34 l55 13 -55 0 c-30 0 -66 -3 -80 -7z"/>
<path d="M2960 4741 c0 -6 10 -13 23 -16 12 -2 53 -11 90 -20 79 -17 95 -19
82 -6 -23 21 -195 58 -195 42z"/>
<path d="M2171 4730 c-133 -15 -162 -21 -168 -36 -4 -10 -10 -11 -24 -3 -15 7
-35 6 -77 -6 -31 -9 -61 -20 -67 -25 -5 -4 -32 -10 -60 -12 -27 -3 -63 -11
-80 -18 -16 -8 -48 -19 -70 -26 -60 -18 -178 -69 -284 -122 -304 -152 -611
-417 -819 -709 -49 -69 -132 -200 -132 -209 0 -3 -20 -39 -44 -82 -49 -88
-146 -320 -146 -352 0 -18 6 -20 48 -19 26 1 57 -3 69 -9 30 -16 63 -15 63 2
0 22 24 26 156 26 113 0 144 -7 114 -25 -20 -12 -9 -25 22 -25 17 0 50 -11 72
-24 40 -23 41 -26 44 -82 2 -33 9 -90 17 -129 7 -38 15 -90 17 -115 l3 -45
-58 -9 c-44 -7 -61 -6 -70 4 -9 10 -9 13 1 17 6 3 10 9 6 14 -3 5 8 9 25 9 16
0 33 5 37 11 4 6 7 59 7 116 0 113 -5 123 -53 123 -15 0 -31 -5 -37 -11 -15
-15 -83 7 -104 34 -20 24 -39 15 -39 -19 0 -20 -5 -24 -29 -24 -40 0 -58 23
-41 54 20 38 6 46 -81 46 -72 0 -79 -2 -79 -20 0 -29 -54 -54 -105 -47 l-42 6
-10 -46 c-6 -25 -9 -77 -7 -114 3 -60 1 -70 -16 -79 -25 -13 -28 -52 -4 -43
13 5 15 2 10 -14 -5 -16 1 -23 33 -37 40 -19 57 -51 40 -78 -5 -7 -9 -23 -9
-35 0 -13 -2 -23 -5 -23 -16 0 -65 32 -65 43 0 6 -5 19 -10 27 -9 13 -11 13
-20 0 -19 -29 -11 -99 14 -133 44 -59 42 -102 -4 -77 -18 10 -20 8 -20 -27 0
-28 6 -42 22 -52 21 -13 21 -14 3 -27 -17 -12 -17 -20 -6 -121 11 -97 67 -354
91 -418 7 -19 17 -25 38 -25 26 0 28 3 24 31 -2 17 -12 35 -22 41 -26 17 0 41
35 32 14 -3 25 -2 25 3 0 14 -50 63 -65 63 -8 0 -15 5 -15 11 0 7 7 8 17 4 10
-4 34 -9 53 -10 19 -2 51 -10 70 -18 31 -14 38 -14 62 1 18 11 30 28 34 49 3
18 10 35 14 38 13 8 60 -54 60 -77 0 -12 7 -29 16 -39 23 -25 9 -42 -29 -33
-18 3 -36 12 -40 18 -5 6 -6 1 -3 -13 6 -31 -9 -51 -39 -51 -12 0 -28 -6 -34
-14 -9 -11 -7 -15 11 -19 32 -9 9 -30 -30 -29 -20 0 -37 -8 -51 -24 -22 -25
-36 -30 -45 -15 -9 14 -46 0 -46 -17 0 -12 3 -13 12 -4 18 18 25 15 33 -15 4
-19 2 -31 -9 -39 -13 -9 -13 -16 -4 -42 11 -29 15 -31 52 -28 28 3 47 12 63
30 21 25 25 26 39 12 16 -17 11 -36 -10 -36 -8 0 -19 -6 -26 -14 -6 -8 -23
-16 -38 -18 -16 -2 -28 -10 -30 -20 -3 -15 4 -18 42 -18 33 0 46 4 46 14 0 8
-6 16 -12 19 -23 8 -4 15 25 10 19 -4 26 -10 23 -20 -4 -10 0 -13 17 -11 15 2
21 9 19 20 -3 20 14 23 52 8 28 -10 59 -3 50 11 -3 5 2 9 10 9 9 0 16 -4 16
-10 0 -11 30 -14 30 -2 0 4 4 13 9 20 6 11 16 10 51 -4 43 -17 44 -17 58 4 9
14 25 22 44 22 44 0 106 39 94 58 -5 8 -60 34 -98 46 -23 7 -23 43 0 50 18 5
51 2 100 -8 20 -5 33 -2 42 9 7 8 19 15 26 15 23 0 16 36 -9 48 -38 18 -132
22 -184 6 -81 -24 -154 -8 -139 31 5 13 14 15 46 10 39 -7 40 -6 40 24 0 25 4
31 23 31 35 0 46 12 43 48 -1 18 3 37 10 43 15 12 44 1 44 -16 0 -18 19 -29
50 -31 88 -4 86 -4 67 -18 -18 -14 -18 -14 0 -18 10 -2 28 5 40 16 24 23 104
30 96 9 -3 -7 12 -19 34 -28 31 -14 47 -15 93 -6 30 6 56 16 58 21 2 5 19 12
39 16 19 4 37 13 40 20 3 8 16 14 30 14 18 0 23 5 21 18 -2 11 3 26 11 36 18
21 8 31 -17 17 -41 -22 -43 -10 -5 25 35 33 42 36 83 31 29 -3 50 -1 60 7 20
18 78 28 86 15 4 -7 11 -6 20 2 31 26 5 39 -58 28 -20 -3 -41 -2 -46 3 -4 4
-71 10 -148 12 -176 6 -371 23 -407 38 -17 7 -26 16 -23 24 4 8 9 20 12 28 4
10 -7 21 -33 35 -38 19 -68 55 -59 70 3 4 148 9 323 10 174 1 327 4 339 7 16
4 31 -4 58 -33 26 -28 36 -33 36 -21 0 10 -22 39 -49 65 -70 69 -158 177 -163
199 -2 10 -9 19 -15 19 -7 0 -18 6 -24 13 -9 8 -9 12 -2 12 6 0 14 -6 17 -12
3 -7 2 10 -2 37 -17 122 1 190 59 220 34 18 108 22 136 7 16 -9 38 -8 94 4 87
18 143 14 173 -15 30 -28 52 -27 176 10 95 29 119 32 247 33 l142 1 40 -39
c21 -21 50 -43 63 -50 15 -7 31 -33 46 -71 52 -137 70 -150 200 -149 78 1 111
6 168 28 84 31 93 31 110 9 13 -17 15 -16 33 7 11 13 21 38 24 55 2 16 14 73
26 125 14 57 20 110 17 131 -6 40 2 99 14 99 8 0 155 -190 221 -284 61 -87 75
-160 39 -196 -21 -21 -45 -21 -165 -5 -45 6 -54 4 -95 -24 -55 -38 -82 -39
-100 -6 -16 31 -34 18 -25 -17 9 -37 45 -52 103 -44 40 5 51 3 56 -9 3 -8 10
-15 16 -15 14 0 13 27 -2 33 -10 3 -10 7 -1 17 13 14 48 5 38 -10 -4 -6 5 -10
20 -10 14 0 28 7 31 15 12 31 36 14 62 -46 l26 -60 195 6 c108 3 279 10 381
16 131 7 204 7 250 0 89 -15 193 -13 264 4 51 12 62 12 80 -1 11 -7 31 -14 44
-14 17 0 27 -9 37 -34 8 -19 12 -41 10 -48 -3 -8 2 -32 12 -54 9 -21 17 -47
18 -56 0 -10 4 -19 10 -20 26 -8 45 292 25 416 -5 33 -17 117 -26 186 -97 731
-562 1383 -1229 1722 -70 36 -97 45 -123 41 -28 -5 -39 0 -70 29 -34 32 -117
68 -157 68 -9 0 -30 7 -47 16 -37 19 -171 23 -166 5 3 -9 -2 -11 -23 -11 -8 0
-8 4 0 14 16 19 -7 27 -53 19 -48 -8 -73 2 -56 22 7 9 11 18 8 21 -24 23 -463
41 -607 24z m-251 -80 c0 -5 -7 -10 -16 -10 -8 0 -12 5 -9 10 3 6 10 10 16 10
5 0 9 -4 9 -10z m407 -1 c6 -6 40 -11 75 -11 45 0 69 -5 83 -18 16 -14 103
-33 205 -45 8 -1 28 -6 44 -10 19 -5 31 -4 36 4 5 9 16 4 39 -15 18 -15 53
-31 78 -35 55 -11 132 -58 133 -81 0 -9 5 -20 11 -23 5 -4 20 -28 32 -53 15
-32 29 -48 44 -50 32 -5 73 -47 73 -76 0 -14 5 -28 10 -31 6 -4 8 -10 5 -15
-8 -12 16 -25 24 -13 9 15 67 43 89 43 26 0 76 55 68 75 -8 21 31 54 56 47 14
-3 16 -7 7 -18 -9 -11 -8 -18 2 -30 11 -14 10 -19 -9 -34 -12 -10 -22 -23 -22
-30 0 -14 -18 -33 -48 -49 -18 -9 -31 -10 -57 -1 -29 10 -38 9 -51 -4 -9 -9
-14 -23 -11 -30 3 -8 -2 -29 -11 -48 -19 -38 -11 -70 23 -87 20 -9 19 -10 -2
-10 -16 -1 -23 -7 -23 -20 0 -10 -7 -22 -16 -25 -14 -5 -14 -9 -3 -23 12 -15
12 -16 -3 -10 -9 3 -22 -1 -28 -8 -10 -12 -9 -16 4 -21 9 -3 16 -17 16 -30 0
-20 -4 -23 -23 -19 -18 5 -26 0 -36 -19 -17 -31 -8 -56 19 -56 14 0 19 -6 18
-22 -1 -13 10 -52 24 -88 15 -36 34 -93 42 -127 16 -59 95 -236 116 -257 13
-13 13 -76 0 -76 -5 0 -14 9 -20 20 -15 28 -44 25 -72 -7 -14 -16 -44 -38 -67
-51 -50 -28 -94 -24 -181 15 -61 28 -109 32 -235 19 -106 -11 -254 -82 -218
-104 6 -4 14 -28 18 -54 l7 -48 -33 0 c-29 0 -38 6 -62 45 -16 25 -31 45 -34
45 -4 0 -99 -18 -212 -40 -499 -98 -491 -97 -491 -65 0 7 -6 16 -12 18 -10 4
-10 8 1 15 8 6 11 17 8 27 -4 9 0 29 8 45 8 16 15 38 15 50 0 11 4 20 10 20 5
0 19 33 31 73 12 39 28 77 35 83 8 6 14 16 14 21 0 16 38 45 52 41 7 -3 19 1
26 9 7 7 24 13 37 13 14 0 34 13 49 31 38 44 78 117 72 127 -3 5 10 45 28 88
19 44 36 86 38 93 4 18 91 61 124 61 13 0 48 11 78 24 30 13 81 30 113 37 32
7 70 18 85 26 15 7 36 13 46 13 11 0 23 7 26 16 7 18 8 17 115 -11 54 -15 68
-16 85 -5 12 7 52 15 91 17 50 2 77 8 97 23 15 11 34 20 41 20 20 0 40 27 34
44 -3 8 -1 17 6 19 8 3 6 9 -5 18 -21 17 -14 61 8 52 8 -3 16 2 20 10 6 16
-20 48 -55 67 -12 6 -21 17 -21 25 0 15 -71 75 -90 75 -7 0 -24 12 -37 26 -21
23 -30 26 -65 21 -53 -7 -89 7 -110 43 -10 17 -25 30 -36 30 -32 0 -175 50
-196 68 -18 16 -19 16 -14 -5 6 -24 -15 -33 -27 -13 -11 17 -25 11 -35 -15 -5
-14 -21 -29 -34 -35 -13 -5 -26 -15 -29 -22 -2 -7 -8 -9 -13 -5 -5 5 -1 13 9
18 27 15 21 27 -25 48 -40 18 -44 18 -73 3 -16 -10 -41 -25 -54 -34 -14 -11
-32 -15 -46 -12 -54 13 -185 -58 -185 -101 0 -8 -6 -15 -12 -15 -23 0 -39 16
-32 33 9 25 -33 22 -48 -3 -8 -12 -24 -20 -41 -20 -24 0 -27 -3 -22 -20 5 -17
3 -19 -22 -14 -20 4 -45 -4 -88 -26 -65 -34 -87 -54 -78 -76 3 -9 -2 -14 -16
-14 -13 0 -25 -9 -30 -24 -7 -17 -20 -25 -47 -29 -21 -4 -43 -2 -50 4 -18 15
-57 1 -88 -32 -15 -16 -31 -29 -36 -29 -5 0 -21 -25 -35 -55 -18 -36 -34 -55
-45 -55 -19 0 -30 -19 -30 -50 0 -21 -26 -34 -34 -17 -3 7 -3 0 0 -14 4 -19 1
-28 -11 -33 -28 -10 -46 -70 -36 -116 8 -38 7 -42 -15 -50 -14 -6 -26 -21 -30
-37 -4 -15 -14 -40 -22 -55 -13 -22 -14 -35 -5 -74 7 -31 8 -56 1 -74 -12 -36
-4 -128 25 -285 12 -71 76 -231 97 -245 8 -5 40 -110 40 -130 0 -6 -13 -2 -30
10 -17 12 -30 29 -30 39 0 9 -4 21 -9 27 -20 21 -71 128 -77 162 -4 21 -15 53
-25 72 -9 19 -20 51 -23 71 -4 19 -15 53 -26 74 -11 21 -23 67 -26 102 -4 35
-10 66 -14 68 -12 7 1 97 17 122 15 23 9 88 -9 99 -5 4 6 20 26 36 41 34 45
52 15 68 -18 10 -19 14 -7 28 42 53 42 87 1 111 -15 8 -14 10 9 16 15 4 30 16
33 26 4 10 15 19 26 19 16 0 19 4 14 21 -6 16 -3 20 17 18 42 -4 58 1 58 16 0
8 4 15 9 15 5 0 11 14 15 30 3 17 11 30 18 30 7 0 23 16 35 35 16 24 33 36 58
41 42 8 59 34 52 80 -3 19 -3 34 1 35 4 1 26 2 50 3 37 2 48 8 85 49 44 49 77
60 116 36 15 -10 34 -4 104 30 48 23 87 45 87 51 0 5 -8 13 -17 19 -28 15 -8
23 32 12 34 -9 41 -7 87 25 28 19 63 34 79 34 15 0 31 5 34 10 3 6 17 10 29
10 13 0 29 7 36 15 7 8 17 15 23 15 18 0 47 32 47 52 0 10 -7 30 -16 44 -20
30 -12 41 20 26 21 -9 27 -8 40 14 17 25 54 32 73 13z m-512 -17 c6 -4 12 -17
12 -29 1 -17 -4 -23 -18 -23 -14 0 -19 7 -19 30 0 30 6 36 25 22z m-69 -50
c12 -8 12 -40 0 -60 -9 -16 -28 -15 -50 1 -14 10 -15 18 -7 40 10 26 34 35 57
19z m1243 -15 c13 -16 5 -27 -20 -27 -21 0 -33 15 -24 30 9 14 31 12 44 -3z
m471 -127 c0 -5 -7 -10 -15 -10 -8 0 -15 5 -15 10 0 6 7 10 15 10 8 0 15 -4
15 -10z m-1820 -40 c0 -5 -2 -10 -4 -10 -3 0 -8 5 -11 10 -3 6 -1 10 4 10 6 0
11 -4 11 -10z m1615 -20 c0 -8 -7 -16 -15 -17 -22 -4 -44 13 -35 26 10 17 50
9 50 -9z m-1075 -50 c0 -11 -50 -34 -57 -27 -2 2 -1 12 3 21 7 17 54 23 54 6z
m1355 -45 c2 -22 -4 -35 -22 -48 -27 -21 -60 -18 -54 4 3 13 7 39 10 67 1 9
12 12 32 10 27 -3 32 -7 34 -33z m-245 -5 c0 -5 -11 -10 -25 -10 -14 0 -25 5
-25 10 0 6 11 10 25 10 14 0 25 -4 25 -10z m-1846 -36 c23 -9 20 -34 -5 -34
-28 0 -61 19 -54 31 7 10 36 12 59 3z m596 -57 c-14 -6 -28 -16 -31 -21 -4 -5
-15 -5 -25 -1 -17 6 -15 9 11 21 17 7 39 13 50 13 17 0 17 -2 -5 -12z m-276
-44 c-3 -11 -15 -19 -32 -19 -26 -2 -26 -1 -4 9 12 5 22 14 22 19 0 4 4 8 9 8
5 0 7 -8 5 -17z m1632 -25 c16 -17 16 -19 -1 -38 -27 -30 -59 -25 -88 14 -15
18 -24 36 -21 39 14 13 95 3 110 -15z m-1873 -74 c7 -7 -24 -74 -34 -74 -17 0
-19 21 -4 50 15 29 26 36 38 24z m-115 -115 c-23 -71 -27 -77 -27 -41 -1 18 6
44 15 58 22 32 26 26 12 -17z m585 14 c-7 -2 -19 -2 -25 0 -7 3 -2 5 12 5 14
0 19 -2 13 -5z m1283 -44 c19 -22 19 -22 -1 -11 -11 6 -27 16 -35 22 -13 8
-13 10 1 10 9 0 24 -10 35 -21z m-2064 -324 c-11 -21 -25 -4 -16 20 4 10 10
13 16 7 7 -7 7 -16 0 -27z m2253 -405 c3 -6 -5 -10 -19 -10 -14 0 -28 5 -31
10 -3 6 5 10 19 10 14 0 28 -4 31 -10z m-505 -65 c13 -16 6 -50 -9 -41 -5 3
-11 -3 -14 -14 -4 -15 -12 -19 -41 -16 -27 2 -40 -3 -56 -21 -25 -29 -38 -29
-52 2 -6 14 -22 32 -36 41 -32 21 -20 31 58 48 87 19 135 19 150 1z m-260 -54
c0 -23 -16 -36 -25 -21 -9 14 1 40 15 40 5 0 10 -9 10 -19z m-2146 -140 c3 -5
-1 -11 -9 -15 -18 -6 -45 2 -45 15 0 12 47 12 54 0z m115 -34 c1 -5 -3 -5 -9
-2 -5 3 -10 16 -9 28 0 21 1 21 9 2 5 -11 9 -24 9 -28z m-98 -42 c0 -14 -31
-19 -43 -7 -6 6 -7 15 -4 21 8 12 48 0 47 -14z m174 -205 c3 -5 -1 -10 -9 -10
-9 0 -16 5 -16 10 0 6 4 10 9 10 6 0 13 -4 16 -10z m-475 -64 c0 -11 -19 -15
-25 -6 -3 5 1 10 9 10 9 0 16 -2 16 -4z m128 -59 c3 -15 -5 -17 -57 -17 -60 0
-83 15 -38 24 12 3 31 7 42 10 33 7 50 2 53 -17z m176 17 c22 -8 10 -24 -19
-24 -27 0 -42 16 -23 23 19 8 24 8 42 1z m246 -34 c8 -5 12 -12 8 -15 -9 -9
-48 4 -48 16 0 12 21 11 40 -1z m-272 -22 c-3 -7 -17 -15 -33 -16 -25 -3 -27
-2 -16 12 16 19 55 22 49 4z m4072 -78 c0 -5 -4 -10 -9 -10 -6 0 -13 5 -16 10
-3 6 1 10 9 10 9 0 16 -4 16 -10z m-4055 -30 c4 -6 -5 -10 -20 -10 -15 0 -24
4 -20 10 3 6 12 10 20 10 8 0 17 -4 20 -10z m-225 -30 c0 -5 -11 -10 -25 -10
-14 0 -25 5 -25 10 0 6 11 10 25 10 14 0 25 -4 25 -10z m-156 -156 c27 -10 19
-34 -12 -34 -27 0 -52 15 -52 32 0 9 41 11 64 2z m1353 -80 c-3 -3 -12 -4 -19
-1 -8 3 -5 6 6 6 11 1 17 -2 13 -5z m-1087 -489 c0 -8 7 -15 15 -15 20 0 19
-16 -1 -24 -9 -4 -17 -5 -18 -4 -1 2 -6 13 -13 24 -12 21 -8 34 9 34 4 0 8 -7
8 -15z m275 -4 c-23 -22 -140 -37 -151 -20 -13 22 13 31 56 19 36 -10 45 -9
59 4 8 9 24 16 35 16 20 0 20 0 1 -19z"/>
<path d="M1530 4110 c0 -5 7 -10 15 -10 8 0 15 5 15 10 0 6 -7 10 -15 10 -8 0
-15 -4 -15 -10z"/>
<path d="M1399 4626 c-71 -29 -109 -55 -109 -72 0 -14 172 70 178 87 5 13 -7
11 -69 -15z"/>
<path d="M3370 4640 c0 -6 8 -13 18 -17 9 -3 50 -21 90 -40 41 -19 76 -32 78
-30 9 9 -151 97 -176 97 -5 0 -10 -5 -10 -10z"/>
<path d="M3740 4483 c0 -5 34 -40 76 -78 77 -69 86 -65 21 10 -35 40 -97 84
-97 68z"/>
<path d="M1030 4389 c-58 -31 -103 -69 -83 -69 11 0 35 14 149 87 41 26 -12
12 -66 -18z"/>
<path d="M681 4134 c-50 -57 -85 -114 -74 -124 3 -3 15 8 27 24 11 16 42 58
68 93 59 78 47 82 -21 7z"/>
<path d="M4062 4161 c6 -18 118 -132 118 -121 0 17 -57 97 -82 115 -25 17 -41
20 -36 6z"/>
<path d="M4330 3861 c0 -6 20 -33 45 -61 24 -28 52 -65 61 -83 10 -17 19 -27
21 -20 5 15 -22 68 -59 116 -32 40 -68 65 -68 48z"/>
<path d="M437 3781 c-50 -55 -69 -87 -65 -107 2 -13 10 -8 30 22 14 21 40 58
58 82 40 53 24 55 -23 3z"/>
<path d="M4580 3505 c0 -3 17 -38 38 -78 20 -40 42 -85 49 -102 l11 -30 1 26
c2 52 -63 189 -89 189 -6 0 -10 -2 -10 -5z"/>
<path d="M176 3324 c-45 -93 -56 -132 -36 -119 22 14 107 215 90 215 -4 0 -28
-43 -54 -96z"/>
<path d="M4744 3053 c19 -83 43 -164 50 -170 13 -13 -4 116 -21 158 -18 45
-39 53 -29 12z"/>
<path d="M88 3020 c-11 -27 -40 -231 -33 -238 11 -11 24 20 35 89 11 66 10
177 -2 149z"/>
<path d="M1452 2764 c-25 -17 -30 -54 -7 -54 9 0 30 7 47 16 29 15 44 15 111
-2 21 -5 27 -3 27 10 0 39 -133 62 -178 30z"/>
<path d="M1641 2651 c-33 -45 -28 -61 19 -61 30 0 42 5 51 21 9 17 7 25 -12
45 -29 31 -33 30 -58 -5z"/>
<path d="M4830 2601 c0 -26 3 -77 7 -112 5 -49 8 -58 14 -39 9 31 11 148 3
178 -11 39 -24 24 -24 -27z"/>
<path d="M1739 2616 c-1 -3 -2 -10 -3 -15 0 -5 -4 -13 -8 -17 -16 -16 -7 -45
17 -56 14 -6 28 -8 32 -5 10 10 -11 90 -24 95 -7 2 -14 1 -14 -2z"/>
<path d="M12 2553 c-23 -40 -3 -201 27 -211 10 -3 11 2 6 19 -4 12 -10 66 -14
118 -5 83 -8 93 -19 74z"/>
<path d="M1918 2331 c-21 -38 -54 -59 -101 -64 -53 -6 -56 -14 -12 -33 31 -13
46 -13 86 -4 51 12 71 8 63 -14 -3 -7 2 -19 11 -26 12 -10 15 -10 15 4 0 10 8
16 23 16 45 0 69 12 64 31 -3 10 1 20 9 23 19 7 18 26 -1 26 -8 0 -20 9 -27
19 -9 15 -15 17 -29 8 -15 -9 -24 -6 -47 16 -15 15 -30 27 -33 27 -2 0 -11
-13 -21 -29z"/>
<path d="M3239 2244 c-13 -7 -34 -13 -46 -14 -13 0 -23 -6 -23 -12 -1 -14 -67
-48 -93 -48 -9 0 -17 7 -17 15 0 8 -4 15 -9 15 -5 0 -11 -7 -15 -15 -7 -18
-29 -19 -56 -2 -17 10 -22 9 -30 -3 -47 -73 70 -111 244 -79 66 12 64 11 124
52 41 26 64 70 46 87 -17 15 -100 18 -125 4z"/>
<path d="M34 2164 c-9 -49 2 -153 23 -220 17 -55 40 -76 29 -26 -3 15 -11 84
-18 155 -6 70 -15 127 -19 127 -5 0 -11 -16 -15 -36z"/>
<path d="M4796 2148 c-12 -46 -20 -241 -9 -235 6 4 13 41 17 84 4 43 9 99 13
126 6 49 -9 67 -21 25z"/>
<path d="M4086 2122 c-2 -1 -158 -3 -347 -3 -189 0 -352 -3 -361 -5 -12 -4
-18 -21 -23 -69 -9 -80 1 -160 18 -147 14 11 57 -2 57 -18 0 -13 -6 -13 -30 2
-16 10 -23 10 -36 -4 -14 -13 -15 -24 -8 -49 8 -27 14 -32 46 -35 21 -1 46 -8
57 -13 14 -8 22 -7 32 5 9 11 22 14 45 10 24 -5 33 -2 38 10 5 14 10 14 42 -5
45 -27 70 -27 77 0 4 14 -1 22 -16 28 -16 6 -11 9 27 14 31 5 61 18 86 37 43
34 52 36 70 15 12 -14 15 -14 31 1 16 14 23 15 45 5 22 -10 30 -9 45 5 10 9
17 21 16 27 -1 5 17 11 41 13 23 1 50 8 58 15 13 10 17 10 24 0 4 -8 13 -10
20 -6 7 5 30 7 52 7 40 -2 53 16 18 25 -11 3 -20 9 -20 14 0 12 37 11 45 -1
10 -17 25 -11 25 9 0 21 19 31 58 31 l27 -1 -27 -15 c-31 -16 -38 -54 -13 -74
9 -7 12 -22 9 -39 -4 -19 -1 -30 9 -34 9 -3 13 -14 10 -30 -4 -18 -15 -28 -44
-37 -45 -15 -64 -5 -31 17 38 26 20 76 -19 52 -8 -4 -24 -6 -37 -2 -31 8 -55
-13 -41 -38 5 -10 18 -19 28 -19 24 0 41 -21 45 -54 1 -13 8 -32 16 -40 10
-14 10 -16 -7 -16 -10 0 -24 -5 -30 -11 -9 -9 -18 -6 -37 8 -14 11 -23 23 -20
26 3 3 -4 3 -15 0 -12 -3 -24 -9 -27 -14 -3 -5 -15 -9 -27 -9 -16 0 -29 -13
-46 -45 -23 -44 -65 -75 -103 -75 -10 0 -18 -4 -18 -10 0 -16 -23 -12 -83 15
-58 25 -202 42 -213 24 -3 -5 -26 -9 -51 -9 -39 0 -44 -2 -38 -17 13 -34 10
-38 -33 -41 l-44 -3 7 30 c6 26 3 32 -24 45 -33 18 -106 22 -96 6 3 -5 14 -10
24 -10 10 0 25 -7 32 -17 13 -15 11 -16 -16 -8 -16 5 -44 8 -62 7 -33 -2 -34
-1 -18 54 5 15 -1 25 -20 40 -15 10 -34 26 -42 34 -14 12 -18 11 -38 -14 -13
-16 -28 -26 -33 -22 -14 8 -52 -15 -52 -31 0 -20 -37 -15 -43 6 -4 15 -18 20
-68 26 -35 4 -67 11 -70 16 -3 5 -20 11 -38 14 -42 5 -59 20 -63 53 -3 28 -13
31 -71 16 -18 -4 -34 -2 -45 8 -9 8 -42 20 -72 27 -92 22 -214 62 -230 76 -8
7 -31 15 -51 19 -20 4 -49 18 -64 32 -17 15 -41 26 -66 28 -22 2 -50 12 -62
23 -12 11 -31 25 -42 31 -15 9 -16 11 -4 12 9 0 24 -9 34 -20 10 -11 24 -20
32 -20 22 0 -7 38 -34 45 -13 3 -23 10 -23 16 0 23 -30 41 -58 34 -25 -6 -26
-7 -9 -20 15 -11 16 -17 7 -34 -6 -12 -20 -21 -30 -21 -27 0 -25 -9 9 -45 29
-30 42 -79 28 -102 -4 -6 -3 -14 3 -18 5 -3 10 -13 10 -22 0 -22 47 -63 73
-64 20 -1 20 -2 -3 -8 -17 -5 -21 -9 -12 -15 7 -4 21 -4 32 -1 15 5 22 0 29
-18 11 -28 29 -43 39 -32 4 4 -1 12 -11 19 -26 20 -20 28 16 21 50 -11 86 -33
85 -52 -1 -10 2 -30 5 -45 6 -23 13 -28 37 -28 16 0 32 -4 35 -10 9 -15 25
-12 25 5 0 20 9 19 61 -8 32 -17 48 -34 58 -60 14 -37 13 -37 -28 -82 -34 -37
-41 -51 -39 -80 1 -19 5 -35 8 -35 3 0 31 18 63 39 32 22 87 49 123 61 50 17
70 29 84 53 24 39 78 59 111 41 13 -7 36 -13 50 -14 46 0 45 -34 -8 -140 -92
-187 -256 -308 -500 -370 -163 -41 -310 -36 -478 17 -153 48 -242 112 -282
200 -24 56 -31 141 -13 159 17 17 29 70 19 85 -7 11 -14 8 -33 -16 -14 -16
-28 -42 -31 -57 -4 -16 -11 -28 -15 -28 -5 0 -7 -6 -4 -14 3 -7 -5 -22 -18
-32 -13 -11 -23 -26 -23 -34 0 -8 -4 -38 -9 -67 -6 -42 -12 -52 -29 -55 -14
-2 -26 -14 -32 -33 -6 -16 -20 -45 -32 -63 -18 -30 -26 -34 -71 -36 -61 -4
-70 -9 -88 -53 -8 -18 -25 -39 -38 -45 -13 -5 -34 -30 -47 -54 -12 -24 -26
-44 -30 -44 -5 0 -11 -16 -15 -36 -5 -25 -11 -34 -21 -30 -8 3 -17 6 -19 6 -3
0 -9 11 -14 25 -13 34 -30 31 -74 -14 -32 -33 -37 -44 -34 -77 3 -42 13 -45
80 -29 21 6 28 4 28 -7 0 -13 -105 -68 -130 -68 -23 0 -7 -20 30 -37 22 -10
42 -25 45 -34 3 -8 32 -28 65 -44 66 -32 54 -33 220 22 80 27 107 43 74 44
-18 0 -18 0 1 8 11 4 34 11 50 15 l30 6 -25 -15 c-25 -16 -24 -16 15 -9 22 4
60 8 85 9 25 1 65 5 90 10 56 9 47 -3 -11 -16 -24 -6 -65 -21 -93 -35 -27 -14
-56 -22 -63 -20 -8 3 -12 2 -8 -3 8 -14 -93 -43 -165 -47 -25 -1 -58 -7 -74
-14 -35 -13 -29 -21 42 -62 82 -48 85 -48 154 -27 34 10 72 19 83 18 11 -1 33
3 49 10 16 6 47 16 70 21 56 14 154 49 137 50 -11 0 -12 3 -4 11 6 6 28 10 50
9 75 -4 118 0 172 16 30 8 107 20 170 25 64 5 123 10 131 11 8 0 35 0 60 -1
31 -1 40 -4 30 -10 -16 -10 -130 -40 -170 -46 -14 -2 -59 -11 -100 -20 -41 -9
-91 -18 -110 -20 l-35 -5 40 14 c22 8 50 15 63 15 12 1 22 6 22 11 0 18 -74
10 -190 -21 -264 -70 -338 -88 -385 -94 -80 -10 -105 -16 -105 -25 0 -17 48
-19 105 -4 107 27 108 27 102 17 -4 -6 -34 -16 -67 -23 -33 -7 -63 -16 -65
-20 -9 -14 63 -41 92 -34 21 4 24 3 13 -5 -12 -8 -11 -11 5 -17 11 -4 35 -13
54 -20 18 -8 49 -14 68 -14 19 0 32 -4 28 -10 -7 -11 37 -23 265 -70 252 -52
640 -42 889 24 60 17 66 20 56 36 -5 8 -25 10 -63 5 -49 -6 -54 -5 -44 8 12
14 129 35 162 28 72 -14 129 -7 210 24 118 45 170 69 170 77 0 11 -82 14 -128
4 -31 -7 -49 -6 -63 2 -10 7 -27 12 -38 12 -10 0 -21 8 -23 17 -3 10 -7 22 -9
26 -7 14 210 16 250 3 42 -15 154 -7 173 12 9 9 5 12 -22 14 -19 0 -46 2 -60
4 -14 1 -82 4 -153 7 -70 2 -130 7 -134 11 -3 3 3 6 15 6 11 0 23 4 26 9 12
19 84 22 142 7 32 -8 62 -12 67 -7 5 5 4 12 -1 15 -21 13 -177 35 -216 31 -23
-3 -86 -7 -141 -9 -137 -7 -318 -24 -368 -36 -55 -12 -90 -13 -82 0 3 6 15 10
26 10 11 0 27 7 35 15 18 17 34 20 34 5 0 -13 47 -13 55 -1 3 5 -3 12 -12 14
-10 3 29 6 87 7 187 5 424 9 450 8 14 0 64 0 113 0 48 0 87 -4 87 -9 0 -5 -17
-10 -37 -10 -37 -1 -37 -2 -8 -8 17 -4 29 -12 28 -18 -2 -11 31 -27 78 -37 18
-4 34 0 49 12 22 18 22 18 -20 14 -23 -2 -47 1 -53 7 -8 8 2 11 38 11 85 0
125 20 70 34 -14 4 -25 11 -25 16 0 6 -8 10 -17 10 -15 0 -15 1 2 13 28 21 8
26 -121 32 -66 3 -146 8 -179 10 -50 4 -57 3 -40 -8 23 -14 24 -14 170 -27 61
-5 117 -12 125 -14 15 -4 -83 -11 -130 -9 -14 1 -117 4 -230 8 -113 4 -207 9
-209 11 -2 2 18 4 45 4 27 0 56 5 64 10 13 8 12 10 -2 10 -10 0 -18 6 -18 14
0 17 146 41 193 31 75 -16 233 -23 280 -12 43 10 49 9 72 -13 13 -13 42 -26
62 -29 45 -7 50 -24 9 -31 -26 -4 -27 -7 -13 -18 13 -11 21 -11 46 2 32 17 49
36 32 36 -6 0 -11 5 -11 10 0 6 7 10 16 10 9 0 12 5 8 11 -5 8 1 10 19 5 21
-5 39 4 101 54 102 82 331 332 365 398 16 30 6 45 -19 29 -16 -9 -24 -9 -39 0
-11 7 -34 10 -55 6 -31 -5 -36 -3 -36 14 0 18 -58 53 -87 53 -9 0 -39 16 -113
60 -8 5 -22 11 -30 14 -8 4 -28 15 -45 25 -16 11 -39 20 -51 20 -11 1 -34 12
-49 25 -15 13 -53 32 -84 41 -31 10 -60 21 -66 25 -5 4 -24 11 -41 14 -18 4
-40 16 -50 27 -9 10 -27 19 -39 19 -12 0 -32 11 -45 25 -13 14 -31 25 -39 25
-9 0 -37 11 -63 25 -26 14 -57 25 -70 25 -21 0 -21 1 -5 17 14 14 23 15 54 6
21 -5 46 -14 56 -18 15 -6 17 -4 11 19 -4 19 -2 26 9 26 17 0 31 -26 28 -52
-1 -11 9 -20 31 -26 18 -6 62 -22 97 -36 36 -14 67 -26 69 -26 2 0 2 10 0 23
-2 17 -9 21 -30 19 -31 -3 -44 11 -25 26 9 8 25 7 57 -4 24 -8 54 -13 67 -9
19 4 22 10 16 35 -4 24 -2 30 11 30 9 0 21 -10 27 -23 13 -29 82 -57 140 -57
25 0 50 -5 57 -12 8 -8 14 -5 21 15 6 15 8 34 5 42 -4 9 -1 15 7 15 8 0 39 17
70 39 30 21 73 44 95 51 21 7 45 17 52 23 15 12 28 1 34 -27 2 -15 18 -23 67
-34 63 -14 63 -14 90 12 30 29 46 33 54 13 3 -8 20 -21 39 -30 19 -9 40 -27
47 -40 11 -21 9 -27 -18 -56 -35 -38 -38 -46 -15 -55 16 -6 43 18 44 38 0 5
11 32 24 60 14 29 28 64 31 79 7 25 5 27 -24 27 -24 0 -34 7 -46 30 -8 16 -15
32 -15 35 -1 3 -3 11 -6 19 -9 24 0 51 19 54 12 3 17 -3 17 -22 0 -29 14 -33
57 -14 42 19 59 46 82 128 19 71 51 223 51 245 0 9 -606 16 -614 7z m-36 -78
c29 -10 -13 -24 -72 -24 -32 0 -58 -3 -58 -7 0 -4 5 -22 12 -40 10 -28 10 -36
-2 -43 -9 -6 -18 -6 -24 0 -13 13 -46 112 -40 121 5 8 154 2 184 -7z m113 -1
c11 -10 -13 -32 -29 -26 -20 8 -17 33 4 33 10 0 22 -3 25 -7z m255 -2 c10 -6
6 -10 -15 -14 -31 -6 -46 0 -38 14 8 11 36 12 53 0z m-250 -52 c-2 -6 -8 -10
-13 -10 -5 0 -11 4 -13 10 -2 6 4 11 13 11 9 0 15 -5 13 -11z m-338 -49 c0 -5
-2 -10 -4 -10 -3 0 -8 5 -11 10 -3 6 -1 10 4 10 6 0 11 -4 11 -10z m691 -20
c25 -14 24 -28 -3 -57 -27 -29 -37 -29 -68 3 l-24 26 23 19 c26 22 44 24 72 9z
m-2316 -100 c3 -5 2 -10 -4 -10 -5 0 -13 5 -16 10 -3 6 -2 10 4 10 5 0 13 -4
16 -10z m2161 -121 c22 -24 11 -34 -49 -45 -59 -10 -76 27 -24 52 34 18 52 16
73 -7z m94 -19 c0 -5 -2 -10 -4 -10 -3 0 -8 5 -11 10 -3 6 -1 10 4 10 6 0 11
-4 11 -10z m-1280 -204 c0 -31 -19 -53 -34 -39 -8 8 -8 58 1 66 17 18 33 5 33
-27z m38 -89 c2 -10 -3 -17 -12 -17 -10 0 -16 9 -16 21 0 24 23 21 28 -4z m7
-66 c3 -5 1 -12 -4 -15 -5 -3 -11 1 -15 9 -6 16 9 21 19 6z m110 -61 c3 -5 -1
-10 -9 -10 -9 0 -16 5 -16 10 0 6 4 10 9 10 6 0 13 -4 16 -10z m-51 -69 c-12
-13 -26 20 -19 46 l8 28 8 -35 c4 -19 5 -37 3 -39z m109 36 c3 -7 3 -25 0 -40
-3 -15 -2 -34 1 -43 6 -15 8 -15 31 0 34 22 35 21 35 -24 0 -23 -5 -40 -11
-40 -6 0 -33 14 -60 32 -45 29 -49 34 -47 70 2 46 38 78 51 45z m-407 -112
c-25 -19 -37 -19 -30 0 4 8 16 15 28 15 21 -1 21 -1 2 -15z m204 -12 c19 -5
34 -15 33 -21 -2 -7 9 -12 25 -12 l27 -1 -23 -12 c-12 -7 -19 -16 -16 -20 4
-4 -3 -7 -16 -7 -19 0 -20 2 -10 15 15 18 9 19 -22 4 -31 -13 -78 4 -85 31 -3
11 -15 22 -27 25 -57 12 -56 13 9 11 39 -2 86 -8 105 -13z m455 -23 c-7 -11
-45 -14 -45 -3 0 3 8 15 17 25 15 17 18 17 25 3 5 -8 6 -20 3 -25z m-2065 -19
c0 -3 -18 -21 -40 -39 -40 -33 -40 -33 -40 -9 0 14 7 30 15 37 8 7 15 20 15
30 0 28 14 33 32 10 10 -12 18 -25 18 -29z m1776 2 c24 -16 43 -36 44 -45 0
-10 -2 -18 -5 -18 -7 0 -125 81 -125 86 0 13 49 0 86 -23z m-303 10 c-7 -2
-19 -2 -25 0 -7 3 -2 5 12 5 14 0 19 -2 13 -5z m861 -22 c6 -9 -72 -91 -86
-91 -16 0 -7 22 24 61 31 38 51 48 62 30z m-1004 -51 c12 -8 11 -10 -5 -10
-12 0 -26 -5 -33 -12 -9 -9 -12 -7 -12 10 0 24 23 29 50 12z m1150 -35 c4 -26
10 -31 42 -35 24 -3 35 -9 30 -16 -11 -16 -38 -24 -49 -13 -11 11 -63 2 -63
-10 0 -12 -72 -101 -81 -101 -18 0 -8 50 16 86 14 21 23 44 21 51 -3 7 2 26
12 43 23 42 65 39 72 -5z m-2347 13 c15 -7 27 -16 27 -20 0 -12 -34 -14 -68
-4 -25 7 -40 6 -68 -7 -19 -9 -42 -17 -51 -17 -48 0 63 58 113 60 11 0 32 -6
47 -12z m1514 -4 c35 -10 77 -15 112 -12 40 4 66 0 96 -13 22 -10 62 -19 88
-19 26 0 64 -8 85 -17 l37 -18 -73 -3 c-59 -2 -85 2 -135 22 -58 23 -222 42
-211 25 2 -4 36 -17 76 -29 60 -18 69 -24 54 -32 -10 -6 -41 -10 -67 -9 -58 1
-65 -15 -11 -24 53 -9 61 -13 27 -14 -45 -1 -100 17 -120 39 -14 16 -31 20
-76 20 -32 0 -61 5 -64 10 -3 6 3 10 14 10 11 0 22 4 25 9 11 17 -54 23 -124
11 -48 -8 -74 -9 -87 -1 -16 9 -14 10 10 11 16 0 26 4 23 8 -3 5 66 7 152 6
144 -3 155 -2 130 12 -26 14 -35 24 -22 24 3 0 31 -7 61 -16z m-1897 -44 c0
-5 -2 -10 -4 -10 -3 0 -8 5 -11 10 -3 6 -1 10 4 10 6 0 11 -4 11 -10z m1626
-32 c4 -5 -13 -8 -37 -9 -24 -1 -73 -3 -109 -4 -68 -4 -120 2 -120 13 0 10
257 9 266 0z m-1611 -8 c9 -14 -6 -61 -18 -57 -22 7 -31 35 -18 51 15 18 27
20 36 6z m1308 0 c31 0 18 -19 -20 -29 -21 -5 -81 -12 -133 -15 l-95 -6 70 19
c39 10 81 23 95 29 14 6 34 9 45 7 11 -3 28 -5 38 -5z m-738 -6 c12 -5 1 -12
-36 -25 -29 -11 -61 -19 -70 -19 -9 0 -22 -7 -30 -16 -9 -11 -22 -14 -41 -10
-15 3 -28 1 -28 -4 0 -5 -9 -12 -20 -15 -11 -3 -20 -12 -20 -19 0 -7 -25 -21
-55 -31 -63 -19 -74 -39 -17 -30 l37 6 -28 -16 c-46 -27 -106 -45 -112 -34 -4
5 0 9 8 9 8 0 21 7 28 17 13 15 10 16 -26 9 -51 -8 -175 -56 -175 -68 0 -4 39
-5 88 -2 64 5 84 4 77 -5 -6 -6 -40 -14 -75 -17 -36 -4 -89 -15 -119 -26 -30
-10 -62 -18 -72 -18 -19 0 -90 -38 -101 -55 -5 -6 -8 -5 -8 4 0 20 97 108 150
135 25 13 80 35 122 50 42 14 119 46 171 71 53 25 122 52 154 60 32 8 81 24
108 35 56 21 66 23 90 14z m1564 -18 c24 -18 42 -24 65 -21 28 4 29 4 6 -4
-14 -5 -21 -9 -16 -10 5 -1 3 -8 -4 -16 -6 -8 -9 -19 -5 -25 12 -19 83 -50
115 -50 41 0 30 -16 -16 -23 -44 -7 -154 21 -154 39 0 18 -38 28 -55 14 -29
-24 -196 -9 -225 20 -23 23 -33 25 -60 8 -15 -10 -23 -10 -28 -2 -4 6 -18 15
-32 19 -24 8 -24 8 -3 16 26 10 167 -4 208 -21 32 -12 183 -16 193 -4 4 4 2 9
-5 11 -7 2 -9 11 -7 18 4 9 -3 16 -20 21 -14 3 -30 12 -37 20 -21 25 44 17 80
-10z m407 4 c0 -13 -7 -20 -18 -20 -16 0 -16 3 -6 20 7 11 15 20 18 20 3 0 6
-9 6 -20z m-793 -7 c-7 -2 -19 -2 -25 0 -7 3 -2 5 12 5 14 0 19 -2 13 -5z
m-160 -10 c-7 -2 -19 -2 -25 0 -7 3 -2 5 12 5 14 0 19 -2 13 -5z m-864 -17
c22 -12 20 -13 -35 -20 -58 -7 -106 -17 -171 -37 -18 -6 -49 -7 -69 -3 l-37 7
27 14 c15 8 35 13 44 12 9 -1 31 4 47 10 67 28 159 36 194 17z m731 4 c0 -5
-18 -10 -40 -10 -27 0 -42 -5 -49 -17 -5 -10 -13 -15 -17 -11 -12 13 16 37 49
41 18 2 38 5 45 5 6 1 12 -2 12 -8z m-1220 -15 c-14 -8 -34 -14 -45 -15 -11 0
-53 -14 -94 -30 -93 -38 -103 -38 -62 2 27 27 41 32 89 35 31 2 61 8 66 13 6
6 24 10 41 10 l30 -1 -25 -14z m793 8 c-7 -2 -21 -2 -30 0 -10 3 -4 5 12 5 17
0 24 -2 18 -5z m637 -2 c-8 -5 -45 -11 -82 -13 -54 -3 -65 -1 -56 9 7 8 35 13
82 13 44 0 65 -4 56 -9z m-745 -16 c-59 -17 -93 -19 -79 -6 5 5 25 11 44 14
71 8 84 5 35 -8z m868 -45 c10 -10 2 -11 -38 -5 -73 10 -93 27 -27 22 29 -2
59 -10 65 -17z m-610 3 c-7 -2 -19 -2 -25 0 -7 3 -2 5 12 5 14 0 19 -2 13 -5z
m-533 -7 c0 -13 -76 -46 -106 -46 -45 0 -43 17 4 29 78 20 102 24 102 17z
m455 -6 c-16 -4 -46 -8 -65 -8 l-35 1 35 7 c19 4 49 7 65 8 l30 0 -30 -8z
m1348 -7 c-7 -2 -21 -2 -30 0 -10 3 -4 5 12 5 17 0 24 -2 18 -5z m-2543 -11
c0 -15 -34 -40 -64 -48 -25 -6 -28 -5 -23 10 4 10 7 21 7 26 0 5 8 11 18 13
30 8 62 7 62 -1z m1060 -2 c-20 -13 -53 -13 -45 0 3 6 18 10 33 10 21 0 24 -2
12 -10z m560 0 c-8 -5 -58 -9 -110 -8 -72 1 -85 3 -55 8 64 11 183 11 165 0z
m907 -13 c4 -6 -2 -8 -18 -4 -13 4 -30 7 -37 7 -7 0 -11 4 -8 9 7 11 54 2 63
-12z m-2400 7 c-3 -3 -12 -4 -19 -1 -8 3 -5 6 6 6 11 1 17 -2 13 -5z m1698 -4
c-3 -5 -17 -10 -30 -10 -13 0 -27 5 -30 10 -4 6 8 10 30 10 22 0 34 -4 30 -10z
m-835 -10 c0 -5 -9 -10 -20 -10 -11 0 -20 5 -20 10 0 6 9 10 20 10 11 0 20 -4
20 -10z m1116 -10 l49 -8 -42 -1 c-24 0 -43 -5 -43 -11 0 -5 6 -10 14 -10 8 0
18 -5 22 -11 5 -9 -4 -10 -32 -5 -55 10 -95 27 -88 38 8 13 46 26 60 21 7 -2
34 -8 60 -13z m-1621 -10 c-77 -32 -136 -51 -147 -47 -9 3 -6 7 7 12 11 4 40
15 65 26 25 10 56 18 70 18 23 0 23 -1 5 -9z m360 1 c5 -9 -4 -13 -57 -27 -22
-5 -22 -5 2 15 27 22 46 26 55 12z m967 -10 c4 -3 -59 -7 -140 -7 -81 -1 -142
0 -136 3 46 17 259 20 276 4z m68 -1 c0 -5 -2 -10 -4 -10 -3 0 -8 5 -11 10 -3
6 -1 10 4 10 6 0 11 -4 11 -10z m-383 -6 c-3 -3 -12 -4 -19 -1 -8 3 -5 6 6 6
11 1 17 -2 13 -5z m-67 -8 c0 -2 -7 -6 -15 -10 -8 -3 -15 -1 -15 4 0 6 7 10
15 10 8 0 15 -2 15 -4z m-214 -16 c9 0 12 -4 9 -10 -7 -12 -65 -14 -65 -2 0
15 13 23 28 17 7 -3 20 -5 28 -5z m144 0 c0 -5 -7 -10 -16 -10 -8 0 -12 5 -9
10 3 6 10 10 16 10 5 0 9 -4 9 -10z m-790 -10 c-8 -5 -26 -9 -40 -9 l-25 1 25
8 c14 4 32 8 40 9 13 1 13 0 0 -9z m733 3 c-7 -2 -21 -2 -30 0 -10 3 -4 5 12
5 17 0 24 -2 18 -5z m-243 -13 c-8 -5 -22 -10 -30 -10 -13 0 -13 1 0 10 8 5
22 10 30 10 13 0 13 -1 0 -10z m-570 -4 c0 -2 -9 -6 -20 -9 -11 -3 -20 -1 -20
4 0 5 9 9 20 9 11 0 20 -2 20 -4z m500 -6 c0 -5 -2 -10 -4 -10 -3 0 -8 5 -11
10 -3 6 -1 10 4 10 6 0 11 -4 11 -10z m-145 -10 c3 -6 -4 -10 -17 -10 -18 0
-20 2 -8 10 19 12 18 12 25 0z m-305 -10 c0 -5 -7 -7 -15 -4 -8 4 -15 8 -15
10 0 2 7 4 15 4 8 0 15 -4 15 -10z m1248 0 c11 0 13 -3 6 -10 -5 -5 -33 -7
-64 -3 -41 5 -49 8 -35 14 11 5 33 6 49 4 16 -3 36 -5 44 -5z m-683 -20 c-11
-5 -31 -9 -45 -9 -23 0 -23 1 -5 9 11 5 31 9 45 9 23 0 23 -1 5 -9z m203 -17
c-10 -2 -28 -2 -40 0 -13 2 -5 4 17 4 22 1 32 -1 23 -4z m174 -9 c-12 -8 -28
-14 -35 -11 -6 2 -21 0 -32 -6 -34 -18 -179 -36 -187 -23 -5 7 10 13 45 18 29
4 70 14 92 22 22 8 62 15 90 15 48 1 49 0 27 -15z m-807 -4 c-3 -5 -12 -10
-18 -10 -7 0 -6 4 3 10 19 12 23 12 15 0z m485 0 c0 -5 -4 -10 -10 -10 -5 0
-10 5 -10 10 0 6 5 10 10 10 6 0 10 -4 10 -10z m465 0 c4 -6 -6 -10 -22 -9
-25 0 -26 1 -8 9 11 5 21 9 22 9 1 1 5 -3 8 -9z m-102 -7 c-7 -2 -19 -2 -25 0
-7 3 -2 5 12 5 14 0 19 -2 13 -5z m-1469 -18 c-46 -20 -84 -28 -84 -18 0 5 19
14 43 20 60 14 77 14 41 -2z m456 -25 c-8 -5 -19 -10 -25 -10 -5 0 -3 5 5 10
8 5 20 10 25 10 6 0 3 -5 -5 -10z m814 -34 c-5 -12 -73 -26 -133 -26 -41 0
-10 17 49 28 80 14 90 14 84 -2z m435 -2 c82 -9 59 -24 -36 -24 -66 0 -92 8
-76 24 8 8 34 8 112 0z m138 0 c-3 -3 -12 -4 -19 -1 -8 3 -5 6 6 6 11 1 17 -2
13 -5z m-770 -30 c2 -5 -47 -20 -109 -33 -62 -13 -120 -29 -128 -36 -33 -26
-179 -58 -165 -36 10 16 63 39 107 46 71 11 80 15 68 30 -17 20 4 28 52 20 25
-5 38 -4 35 2 -4 6 3 8 16 6 12 -2 40 0 62 5 45 11 57 10 62 -4z m518 6 c3 -5
16 -10 27 -10 12 0 18 -3 15 -7 -7 -6 -197 -6 -204 1 -5 5 90 23 129 25 15 0
30 -3 33 -9z m-835 -37 c0 -5 -34 -19 -76 -32 -55 -17 -79 -20 -87 -12 -15 15
-12 16 73 34 93 19 90 19 90 10z m465 -2 c-64 -26 -165 -39 -165 -21 0 6 17
10 38 11 20 0 55 4 77 8 52 11 75 12 50 2z m489 -6 c4 -10 -1 -15 -14 -15 -13
0 -18 5 -14 15 4 8 10 15 14 15 4 0 10 -7 14 -15z m89 8 c-7 -2 -21 -2 -30 0
-10 3 -4 5 12 5 17 0 24 -2 18 -5z m-223 -23 c12 -8 10 -10 -10 -10 -34 0 -76
-24 -72 -40 2 -8 -3 -10 -14 -6 -40 15 -66 17 -134 7 -41 -5 -78 -7 -84 -4
-14 9 82 32 137 33 26 0 47 4 47 9 0 19 104 28 130 11z m-552 -7 c-10 -2 -26
-2 -35 0 -10 3 -2 5 17 5 19 0 27 -2 18 -5z m126 -31 c11 -19 -13 -29 -79 -35
-42 -3 -62 -2 -50 3 17 7 15 9 -11 9 -47 1 -189 -27 -251 -51 -30 -11 -62 -17
-71 -13 -16 6 -16 7 0 16 26 15 143 39 283 58 155 22 172 23 179 13z m596 4
c0 -2 3 -11 6 -20 5 -13 -2 -16 -36 -16 -22 0 -60 -4 -83 -9 -82 -18 -179 -32
-185 -26 -12 11 35 34 71 35 22 0 36 4 32 10 -9 14 52 28 128 29 37 1 67 -1
67 -3z m-1333 -12 c-3 -3 -12 -4 -19 -1 -8 3 -5 6 6 6 11 1 17 -2 13 -5z m148
-4 c-3 -5 -13 -10 -21 -10 -8 0 -14 5 -14 10 0 6 9 10 21 10 11 0 17 -4 14
-10z m-230 -15 c-28 -10 -85 -23 -85 -19 0 8 45 23 70 23 14 -1 21 -2 15 -4z
m255 -9 c0 -10 -113 -37 -138 -34 -20 3 -10 8 38 20 68 16 100 21 100 14z
m1375 -15 c4 -7 -44 -13 -225 -27 -30 -3 -64 -5 -75 -6 -11 -1 -42 0 -70 1
-87 5 -15 19 140 29 190 11 224 12 230 3z m-1255 -81 c-8 -5 -22 -10 -30 -10
-13 0 -13 1 0 10 8 5 22 10 30 10 13 0 13 -1 0 -10z m785 -20 c-16 -4 -50 -8
-75 -8 -37 0 -40 2 -20 8 14 4 48 8 75 8 43 0 46 -1 20 -8z"/>
<path d="M3105 920 c3 -5 13 -10 21 -10 8 0 12 5 9 10 -3 6 -13 10 -21 10 -8
0 -12 -4 -9 -10z"/>
<path d="M1639 2068 c-8 -27 -6 -39 8 -34 8 3 17 6 19 6 2 0 4 7 4 15 0 12
-28 23 -31 13z"/>
<path d="M3062 2008 c6 -16 55 -34 65 -24 10 10 -26 36 -50 36 -10 0 -17 -5
-15 -12z"/>
<path d="M3178 2013 c-10 -2 -18 -9 -18 -15 0 -5 -9 -21 -20 -35 -28 -35 -25
-59 10 -95 35 -34 50 -33 69 8 8 16 25 42 38 57 12 16 23 32 23 36 0 4 -17 16
-37 26 -47 24 -45 23 -65 18z"/>
<path d="M1490 1951 c0 -13 29 -35 37 -27 3 3 15 -1 25 -11 10 -9 21 -13 25
-10 10 10 -46 57 -68 57 -10 0 -19 -4 -19 -9z"/>
<path d="M4243 1943 c-7 -2 -13 -11 -13 -20 0 -10 6 -12 23 -7 28 8 30 10 22
23 -7 12 -13 12 -32 4z"/>
<path d="M1625 1930 c-8 -13 20 -24 40 -16 8 3 15 10 15 16 0 13 -47 13 -55 0z"/>
<path d="M4135 1919 c-4 -6 -5 -12 -2 -15 7 -7 37 7 37 17 0 13 -27 11 -35 -2z"/>
<path d="M4011 1833 c-1 -44 -5 -53 -23 -53 -24 0 -23 -17 2 -30 22 -12 44 -5
34 11 -3 5 10 16 29 24 39 16 62 40 52 55 -3 5 -26 10 -50 10 -35 0 -44 -4
-44 -17z"/>
<path d="M976 1777 c7 -20 75 -47 125 -50 24 -1 47 -6 52 -12 8 -11 39 23 32
35 -5 7 -80 22 -172 35 -33 4 -41 2 -37 -8z"/>
<path d="M1296 1764 c-22 -21 -20 -34 4 -34 11 0 26 -12 34 -29 15 -28 47 -44
69 -35 7 2 12 26 13 53 1 42 -2 50 -20 55 -39 11 -84 6 -100 -10z"/>
<path d="M1646 1767 c-18 -13 -18 -15 -1 -40 11 -17 26 -27 42 -27 23 0 24 3
18 33 -12 52 -24 59 -59 34z"/>
<path d="M1240 1740 c0 -5 5 -10 10 -10 6 0 10 5 10 10 0 6 -4 10 -10 10 -5 0
-10 -4 -10 -10z"/>
<path d="M4068 1738 c9 -9 15 -9 24 0 9 9 7 12 -12 12 -19 0 -21 -3 -12 -12z"/>
<path d="M1580 1720 c0 -13 11 -13 30 0 12 8 11 10 -7 10 -13 0 -23 -4 -23
-10z"/>
<path d="M4701 1705 c-17 -42 -41 -144 -41 -178 0 -53 18 -17 40 78 23 100 23
155 1 100z"/>
<path d="M3813 1702 c-7 -17 0 -23 45 -39 62 -21 87 -12 77 30 -6 24 -10 26
-62 24 -35 -1 -57 -7 -60 -15z m82 -12 c3 -5 -3 -10 -15 -10 -12 0 -18 5 -15
10 3 6 10 10 15 10 5 0 12 -4 15 -10z"/>
<path d="M3450 1692 c1 -12 87 -71 94 -65 3 3 1 12 -4 19 -6 6 -10 16 -9 20 4
25 -5 32 -41 32 -22 0 -40 -2 -40 -6z"/>
<path d="M1492 1678 c-7 -7 -12 -18 -12 -24 0 -16 -32 -26 -55 -18 -13 5 -16
4 -11 -4 9 -16 51 -15 76 1 17 10 22 9 29 -2 5 -8 7 -20 4 -28 -6 -16 9 -17
25 -1 18 18 14 46 -8 53 -11 3 -20 13 -20 21 0 17 -12 18 -28 2z"/>
<path d="M3567 1684 c-8 -8 1 -24 14 -24 5 0 9 7 9 15 0 15 -12 20 -23 9z"/>
<path d="M4550 1670 c0 -5 9 -10 20 -10 11 0 20 5 20 10 0 6 -9 10 -20 10 -11
0 -20 -4 -20 -10z"/>
<path d="M900 1651 c0 -10 30 -24 37 -17 3 3 2 9 -2 15 -8 13 -35 15 -35 2z"/>
<path d="M1138 1653 c-39 -4 -45 -13 -49 -68 -3 -37 1 -42 34 -50 47 -12 47
-12 60 14 10 20 21 26 57 28 24 2 48 7 54 13 5 5 22 10 38 10 17 0 31 7 38 20
10 18 8 20 -24 20 -19 0 -38 5 -41 10 -3 6 -17 10 -31 10 -16 0 -23 -4 -18
-11 5 -8 0 -10 -17 -6 -44 12 -64 14 -101 10z"/>
<path d="M123 1621 c10 -49 68 -191 78 -191 5 0 9 1 9 3 0 9 -34 118 -52 165
-21 56 -44 72 -35 23z"/>
<path d="M1575 1568 c2 -18 3 -45 4 -60 1 -18 7 -28 16 -28 8 0 12 6 9 14 -3
8 -1 17 5 21 19 11 -7 85 -29 85 -4 0 -6 -15 -5 -32z"/>
<path d="M1680 1584 c0 -8 5 -12 10 -9 6 4 8 11 5 16 -9 14 -15 11 -15 -7z"/>
<path d="M4244 1559 c-8 -14 11 -33 25 -25 11 7 4 36 -9 36 -5 0 -12 -5 -16
-11z"/>
<path d="M4350 1530 c0 -5 5 -10 11 -10 5 0 7 5 4 10 -3 6 -8 10 -11 10 -2 0
-4 -4 -4 -10z"/>
<path d="M1235 1519 c-11 -17 1 -21 15 -4 8 9 8 15 2 15 -6 0 -14 -5 -17 -11z"/>
<path d="M882 1480 c-6 -11 -12 -26 -12 -34 0 -21 -64 -36 -116 -29 -26 3 -56
1 -75 -7 -24 -11 -32 -11 -39 -1 -8 14 -52 11 -56 -4 -5 -15 66 -57 111 -66
28 -5 48 -3 68 8 33 17 128 43 157 43 13 0 20 7 20 19 0 10 7 24 15 31 22 19
18 39 -11 50 -37 14 -48 12 -62 -10z"/>
<path d="M1390 1462 c0 -15 24 -32 43 -32 17 0 17 2 -6 20 -27 21 -37 25 -37
12z"/>
<path d="M3895 1440 c-55 -13 -75 -22 -75 -35 0 -8 -10 -15 -22 -17 -38 -5
-30 -23 18 -41 42 -15 49 -16 64 -2 27 25 53 19 48 -9 -5 -26 7 -36 43 -36 11
0 17 -5 14 -10 -10 -16 25 -25 46 -12 10 7 26 12 34 12 9 0 13 5 10 10 -3 6
-17 7 -31 4 -21 -5 -24 -3 -23 22 2 39 19 74 37 74 7 0 12 6 10 12 -5 15 -76
29 -84 16 -9 -14 -44 -9 -44 7 0 8 -3 14 -7 14 -5 -1 -21 -5 -38 -9z"/>
<path d="M3686 1415 c-3 -9 0 -15 9 -15 9 0 12 6 9 15 -4 8 -7 15 -9 15 -2 0
-5 -7 -9 -15z"/>
<path d="M4420 1415 c0 -9 -12 -26 -27 -39 -29 -25 -25 -46 10 -46 16 0 18 3
9 12 -20 20 -13 31 17 25 31 -6 41 5 41 44 0 14 -7 19 -25 19 -16 0 -25 -6
-25 -15z"/>
<path d="M1482 1352 c-18 -12 20 -45 42 -36 21 8 20 21 -3 34 -23 12 -23 12
-39 2z"/>
<path d="M4173 1348 c1 -8 -11 -11 -36 -9 -37 3 -38 2 -31 -26 4 -15 9 -32 13
-38 3 -5 4 -17 3 -26 -2 -11 7 -19 23 -23 31 -8 48 1 41 20 -3 7 -1 16 4 19 6
4 10 0 10 -8 0 -8 7 -17 15 -21 8 -3 14 -11 13 -18 -3 -14 54 -37 95 -37 20
-1 30 5 37 23 5 13 14 27 19 31 6 3 11 11 11 16 0 6 -4 8 -9 5 -5 -4 -21 -2
-36 4 -21 8 -26 15 -22 31 3 12 3 27 0 35 -6 16 -49 19 -58 4 -3 -5 -19 -10
-35 -10 -15 0 -31 -6 -33 -12 -3 -7 -3 2 0 20 4 25 2 32 -11 32 -9 0 -15 -5
-13 -12z m162 -128 c-9 -14 -45 -13 -45 1 0 7 8 18 18 25 14 10 18 10 25 -2 4
-8 5 -19 2 -24z"/>
<path d="M1417 1333 c-10 -10 -8 -33 3 -33 5 0 14 9 20 20 8 15 8 20 -3 20 -8
0 -17 -3 -20 -7z"/>
<path d="M4562 1278 c-11 -29 -32 -79 -47 -112 -29 -66 -28 -82 4 -38 33 47
84 183 73 194 -6 6 -17 -9 -30 -44z"/>
<path d="M440 1300 c0 -6 11 -16 25 -22 25 -11 30 -19 18 -31 -10 -11 -12 -56
-3 -62 5 -3 7 -11 4 -19 -5 -13 35 -36 65 -36 10 0 24 7 31 15 7 8 23 15 36
15 12 0 26 5 29 10 8 14 -14 42 -29 37 -13 -4 -46 35 -46 56 0 27 -35 47 -83
47 -26 0 -47 -5 -47 -10z m110 -79 c0 -5 -7 -14 -15 -21 -18 -15 -42 1 -31 19
8 13 46 15 46 2z"/>
<path d="M948 1293 c7 -3 16 -2 19 1 4 3 -2 6 -13 5 -11 0 -14 -3 -6 -6z"/>
<path d="M266 1252 c-15 -24 44 -151 97 -209 35 -39 37 -14 2 38 -19 29 -44
77 -56 108 -25 64 -34 77 -43 63z"/>
<path d="M1144 1224 c3 -9 6 -18 6 -20 0 -2 10 -4 22 -4 20 0 21 1 3 20 -22
24 -40 26 -31 4z"/>
<path d="M1317 1213 c-4 -3 -7 -17 -7 -30 0 -28 25 -31 58 -7 18 13 21 19 11
30 -12 14 -51 19 -62 7z"/>
<path d="M1062 1135 c-9 -19 -19 -25 -44 -25 -25 0 -29 -3 -18 -10 8 -5 24
-10 34 -10 24 0 88 48 81 61 -12 18 -42 9 -53 -16z"/>
<path d="M818 1125 c-2 -3 -45 -8 -94 -11 -49 -3 -91 -10 -93 -16 -2 -6 -12
-19 -22 -29 -17 -17 -15 -18 79 -14 156 7 195 18 185 55 -5 18 -41 28 -55 15z"/>
<path d="M1148 1118 c8 -8 17 -8 34 0 22 10 21 11 -11 11 -27 1 -32 -2 -23
-11z"/>
<path d="M1060 1026 c0 -9 30 -14 35 -6 4 6 -3 10 -14 10 -12 0 -21 -2 -21 -4z"/>
<path d="M4371 934 c-14 -25 -39 -66 -57 -92 -18 -25 -30 -50 -27 -56 12 -19
104 110 118 167 11 42 -7 32 -34 -19z"/>
<path d="M1031 950 c-18 -4 -43 -17 -54 -29 -19 -18 -19 -21 -4 -27 23 -8 69
12 98 42 24 26 19 28 -40 14z"/>
<path d="M480 868 c1 -18 47 -71 94 -108 71 -55 66 -31 -9 45 -41 41 -77 75
-80 75 -3 0 -5 -6 -5 -12z"/>
<path d="M920 849 c0 -5 5 -7 10 -4 6 3 10 8 10 11 0 2 -4 4 -10 4 -5 0 -10
-5 -10 -11z"/>
<path d="M4060 604 c-61 -60 -66 -85 -10 -48 41 28 100 87 100 101 0 25 -25
10 -90 -53z"/>
<path d="M800 602 c0 -9 120 -101 158 -121 13 -7 28 -11 35 -8 7 2 1 10 -13
17 -14 7 -55 37 -91 66 -63 51 -89 65 -89 46z"/>
<path d="M3822 393 c-52 -36 -78 -59 -68 -61 36 -8 166 77 166 107 0 19 -12
13 -98 -46z"/>
<path d="M3420 360 c0 -5 4 -10 9 -10 6 0 13 5 16 10 3 6 -1 10 -9 10 -9 0
-16 -4 -16 -10z"/>
<path d="M1170 321 c0 -21 245 -97 256 -80 3 5 -1 11 -8 14 -7 2 -57 20 -112
40 -100 35 -136 42 -136 26z"/>
<path d="M3482 195 c-51 -25 -90 -50 -87 -56 4 -5 9 -8 13 -6 72 33 182 93
182 99 0 14 -12 9 -108 -37z"/>
<path d="M1660 135 c0 -17 141 -55 205 -55 38 0 -2 18 -87 39 -87 21 -118 25
-118 16z"/>
<path d="M3140 99 c-30 -5 -74 -11 -97 -14 -52 -7 -57 -25 -7 -25 43 0 175 29
189 41 11 11 -8 10 -85 -2z"/>
<path d="M2110 56 c0 -4 16 -14 35 -22 37 -15 175 -20 175 -5 0 4 -30 11 -67
14 -38 4 -85 9 -105 13 -21 4 -38 4 -38 0z"/>
<path d="M2668 41 c-31 -3 -60 -10 -65 -15 -12 -13 177 0 190 13 12 12 -24 13
-125 2z"/>
</g>
</svg>
